<svg width="120" height="32" viewBox="0 0 120 32" fill="none" xmlns="http://www.w3.org/2000/svg">
<g id="LookerLogo" clip-path="url(#clip0_3535_177)">
<g id="Grey" clip-path="url(#clip1_3535_177)">
<g id="Layer 2">
<g id="specs">
<path id="Vector" d="M9.82048 2.46702e-06C9.31522 0.000222865 8.81952 0.137786 8.3864 0.397978C7.95329 0.65817 7.59905 1.0312 7.36158 1.47718C7.1241 1.92315 7.01233 2.42529 7.0382 2.92989C7.06408 3.43449 7.22664 3.92256 7.50849 4.3419L8.6989 3.15317C8.65956 3.03459 8.63971 2.91041 8.64014 2.78547C8.64014 2.55302 8.70907 2.32578 8.83821 2.13251C8.96735 1.93923 9.15091 1.78859 9.36567 1.69963C9.58043 1.61067 9.81674 1.5874 10.0447 1.63275C10.2727 1.6781 10.4821 1.79004 10.6465 1.9544C10.8109 2.11877 10.9228 2.32819 10.9682 2.55618C11.0135 2.78416 10.9902 3.02048 10.9013 3.23524C10.8123 3.45 10.6617 3.63355 10.4684 3.7627C10.2751 3.89184 10.0479 3.96077 9.81544 3.96077C9.69106 3.96104 9.56746 3.9412 9.44942 3.90201L8.26068 5.09074C8.62146 5.33543 9.03462 5.49202 9.46695 5.54793C9.89927 5.60384 10.3387 5.55749 10.7498 5.41263C11.161 5.26776 11.5324 5.02842 11.8342 4.71386C12.136 4.39929 12.3597 4.01828 12.4874 3.60148C12.6151 3.18468 12.6432 2.74373 12.5695 2.31409C12.4957 1.88445 12.3221 1.47813 12.0627 1.1278C11.8033 0.777473 11.4652 0.492924 11.0758 0.297044C10.6864 0.101164 10.2564 -0.000577662 9.82048 2.46702e-06V2.46702e-06Z" fill="#007AFF"/>
<path id="Vector_2" d="M8.7123 8.11796C8.71413 7.17702 8.40941 6.2611 7.84426 5.50879L6.29957 7.05179C6.53447 7.48143 6.62036 7.97679 6.5438 8.46043C6.46725 8.94406 6.23257 9.38868 5.87646 9.72476L6.71597 11.7765C7.32811 11.3823 7.83161 10.8408 8.18037 10.2016C8.52913 9.56249 8.71202 8.84607 8.7123 8.11796V8.11796Z" fill="#007AFF"/>
<path id="Vector_3" d="M4.39561 10.3326H4.35531C4.00993 10.3327 3.66932 10.252 3.36066 10.097C3.052 9.94202 2.78383 9.71705 2.57754 9.44003C2.37126 9.16302 2.23258 8.84163 2.17256 8.5015C2.11254 8.16137 2.13284 7.81192 2.23185 7.48103C2.33085 7.15014 2.50582 6.84697 2.7428 6.59571C2.97977 6.34445 3.27219 6.15205 3.59672 6.03386C3.92126 5.91567 4.26892 5.87497 4.61198 5.915C4.95503 5.95503 5.28399 6.07468 5.57259 6.26441L7.10216 4.73484C6.56083 4.29597 5.92208 3.99341 5.23957 3.85257C4.55707 3.71173 3.85073 3.73672 3.17989 3.92544C2.50904 4.11417 1.89328 4.46112 1.38431 4.93715C0.875349 5.41318 0.488044 6.00439 0.254929 6.66113C0.0218145 7.31787 -0.0503037 8.02096 0.0446317 8.71135C0.139567 9.40174 0.398784 10.0593 0.800512 10.6287C1.20224 11.1982 1.73475 11.6629 2.35331 11.9839C2.97187 12.3048 3.65843 12.4727 4.35531 12.4734C4.65075 12.4735 4.94546 12.4443 5.23511 12.3861L4.39561 10.3326Z" fill="#007AFF"/>
<path id="Vector_4" d="M9.87919 12.1073C8.91243 12.1063 7.95076 12.2471 7.02489 12.5253L8.24888 15.5156C8.78168 15.3836 9.3286 15.3171 9.87751 15.3175C11.42 15.318 12.9145 15.8532 14.1066 16.832C15.2987 17.8109 16.1145 19.1727 16.4151 20.6856C16.7156 22.1985 16.4824 23.7688 15.755 25.1289C15.0276 26.4891 13.8512 27.555 12.4261 28.1451C11.0009 28.7351 9.41531 28.8128 7.93934 28.3648C6.46337 27.9169 5.18837 26.9711 4.33155 25.6885C3.47474 24.4059 3.08912 22.8659 3.2404 21.3309C3.39168 19.7959 4.0705 18.3608 5.1612 17.2702C5.63051 16.8024 6.16628 16.4063 6.75121 16.0949L5.54065 13.113C3.36096 14.1805 1.65022 16.0126 0.734429 18.2603C-0.181363 20.5079 -0.238182 23.0139 0.574801 25.3008C1.38778 27.5876 3.01373 29.4954 5.1428 30.6606C7.27187 31.8258 9.75522 32.1669 12.1196 31.619C14.484 31.071 16.5641 29.6723 17.9636 27.6894C19.3631 25.7065 19.9841 23.2779 19.7083 20.8666C19.4325 18.4553 18.2791 16.2297 16.468 14.614C14.6569 12.9983 12.3146 12.1055 9.88759 12.1056L9.87919 12.1073Z" fill="#007AFF"/>
<path id="Vector_5" d="M29.3354 4.08667H32.1142V25.0625H42.3444V27.7035H29.3354V4.08667Z" fill="#007AFF"/>
<path id="Vector_6" d="M46.3723 26.5668C45.1179 25.8221 44.0922 24.747 43.4072 23.459C42.6917 22.1235 42.3261 20.6287 42.3444 19.1137C42.3272 17.6011 42.6928 16.1086 43.4072 14.7752C44.0922 13.4872 45.1179 12.4121 46.3723 11.6674C47.675 10.9186 49.1513 10.5245 50.6538 10.5245C52.1563 10.5245 53.6326 10.9186 54.9352 11.6674C56.1895 12.4128 57.2156 13.4876 57.902 14.7752C58.6168 16.1109 58.9824 17.6056 58.9648 19.1204C58.9824 20.6353 58.6168 22.13 57.902 23.4657C57.2161 24.753 56.1906 25.8279 54.9369 26.5735C53.6343 27.3223 52.158 27.7163 50.6555 27.7163C49.1529 27.7163 47.6767 27.3223 46.374 26.5735L46.3723 26.5668ZM53.4241 24.5218C54.2965 24.0115 55.0116 23.2708 55.491 22.3811C56.0275 21.3772 56.2953 20.2517 56.2684 19.1137C56.2951 17.9758 56.0273 16.8503 55.491 15.8464C55.013 14.9573 54.2997 14.2167 53.4292 13.7057C52.5877 13.2127 51.629 12.9552 50.6538 12.9602C49.6571 12.9563 48.678 13.2226 47.8206 13.7308C46.9632 14.239 46.2597 14.9701 45.7847 15.8464C45.2497 16.8508 44.9825 17.9761 45.009 19.1137C44.9824 20.2514 45.2495 21.3768 45.7847 22.3811C46.1389 23.0307 46.6196 23.6029 47.1985 24.0637C47.7774 24.5246 48.4427 24.8648 49.1553 25.0643C49.8678 25.2639 50.6131 25.3186 51.3471 25.2255C52.0812 25.1323 52.7891 24.893 53.4292 24.5218H53.4241Z" fill="#007AFF"/>
<path id="Vector_7" d="M64.435 26.5668C63.1813 25.8211 62.1559 24.7463 61.4699 23.459C60.7552 22.1233 60.3896 20.6286 60.4071 19.1137C60.3907 17.6012 60.7562 16.1089 61.4699 14.7752C62.1559 13.4879 63.1813 12.413 64.435 11.6674C65.7377 10.9186 67.2139 10.5245 68.7165 10.5245C70.219 10.5245 71.6953 10.9186 72.9979 11.6674C74.2526 12.4123 75.2788 13.4873 75.9647 14.7752C76.6795 16.1109 77.0451 17.6056 77.0275 19.1204C77.0451 20.6353 76.6795 22.13 75.9647 23.4657C75.2793 24.7534 74.2537 25.8283 72.9996 26.5735C71.6969 27.3223 70.2207 27.7163 68.7182 27.7163C67.2156 27.7163 65.7394 27.3223 64.4367 26.5735L64.435 26.5668ZM71.4868 24.5218C72.357 24.0103 73.0701 23.2698 73.5486 22.3811C74.0844 21.3769 74.3521 20.2516 74.326 19.1137C74.3519 17.9759 74.0842 16.8506 73.5486 15.8464C73.0701 14.9576 72.357 14.2172 71.4868 13.7057C70.6453 13.2127 69.6867 12.9552 68.7114 12.9602C67.7311 12.9567 66.7674 13.2139 65.9193 13.7057C65.0421 14.2131 64.3231 14.9543 63.8423 15.8464C63.306 16.8503 63.0382 17.9758 63.065 19.1137C63.038 20.2517 63.3058 21.3772 63.8423 22.3811C64.3231 23.2732 65.0421 24.0143 65.9193 24.5218C66.7674 25.0135 67.7311 25.2708 68.7114 25.2673C69.689 25.2735 70.6501 25.016 71.4936 24.5218H71.4868Z" fill="#007AFF"/>
<path id="Vector_8" d="M79.0239 4.08667H81.801V19.0164L90.1624 10.5223H93.6883V10.6533L86.6365 17.7739L93.3693 27.5793V27.7035H90.0382L84.6771 19.6947L81.801 22.5775V27.7035H79.0239V4.08667Z" fill="#007AFF"/>
<path id="Vector_9" d="M96.954 26.5987C95.7321 25.8638 94.7382 24.8042 94.0829 23.5379C93.3819 22.1796 93.0283 20.6688 93.0536 19.1406C93.0421 17.6538 93.3742 16.1846 94.0241 14.8474C94.6371 13.5623 95.5914 12.4704 96.7827 11.6908C98.0054 10.9005 99.4355 10.4914 100.891 10.5155C102.476 10.5155 103.851 10.8698 105.015 11.5783C106.173 12.2792 107.105 13.2979 107.701 14.5132C108.344 15.851 108.662 17.3211 108.631 18.8048C108.63 19.0807 108.609 19.3563 108.568 19.6292H95.7484C95.8123 20.8604 96.1083 21.8969 96.6366 22.7387C97.1233 23.5438 97.8197 24.2013 98.6514 24.641C99.4383 25.0573 100.315 25.2752 101.205 25.2756C103.319 25.2756 104.915 24.3029 105.994 22.3575L108.277 23.4673C107.626 24.7294 106.652 25.7964 105.455 26.5601C104.249 27.3223 102.801 27.7035 101.11 27.7035C99.6487 27.7277 98.2099 27.3452 96.954 26.5987V26.5987ZM105.777 17.4011C105.726 16.6929 105.532 16.0024 105.206 15.3712C104.842 14.6673 104.294 14.0754 103.62 13.6586C102.901 13.193 101.992 12.9602 100.893 12.9602C99.6971 12.9329 98.5373 13.3705 97.6575 14.1808C96.7698 14.9957 96.1883 16.0691 95.913 17.4011H105.777Z" fill="#007AFF"/>
<path id="Vector_10" d="M110.425 10.5257H113.071V13.7158H113.202C113.529 12.8002 114.16 12.0374 115.097 11.4273C115.965 10.8414 116.987 10.5248 118.034 10.5173C118.706 10.5002 119.373 10.6232 119.995 10.8783V13.8518C119.263 13.4958 118.458 13.3164 117.644 13.328C116.85 13.3241 116.074 13.5645 115.421 14.0164C114.736 14.4865 114.179 15.1216 113.803 15.8633C113.4 16.6372 113.193 17.4977 113.198 18.37V27.7036H110.425V10.5257Z" fill="#007AFF"/>
</g>
</g>
</g>
</g>
<defs>
<clipPath id="clip0_3535_177">
<rect width="120" height="32" fill="white"/>
</clipPath>
<clipPath id="clip1_3535_177">
<rect width="120" height="31.8675" fill="white"/>
</clipPath>
</defs>
</svg>
