<svg width="98" height="98" viewBox="0 0 98 98" fill="none" xmlns="http://www.w3.org/2000/svg">
<path fill-rule="evenodd" clip-rule="evenodd" d="M30.5867 25.6817C29.9107 25.6795 29.2372 25.7653 28.5833 25.9369V26.0262H28.6803C29.1486 26.7332 29.6708 27.4029 30.2422 28.0296C30.6352 28.8105 30.9772 29.5889 31.3676 30.3698C31.4161 30.3214 31.4646 30.2703 31.4646 30.2703C31.8272 29.9825 32.1109 29.6076 32.2894 29.1806C32.4679 28.7535 32.5354 28.2882 32.4854 27.828C32.2717 27.4984 32.0758 27.1576 31.8984 26.8071C31.605 26.3197 30.9695 26.0747 30.579 25.6842" fill="#5D87A1"/>
<path fill-rule="evenodd" clip-rule="evenodd" d="M79.0636 68.2709C75.8443 68.0447 72.6139 68.5114 69.5902 69.6388C68.8577 69.9324 67.689 69.9324 67.587 70.8589C67.9798 71.2493 68.0259 71.8797 68.3705 72.4232C69.039 73.5547 69.8981 74.5625 70.9096 75.4016C71.9304 76.1823 72.9512 76.9606 74.0362 77.6446C75.9374 78.8214 78.0889 79.5025 79.9415 80.674C81.0187 81.358 82.0905 82.2359 83.1673 82.9709C83.7035 83.3612 84.0428 83.9917 84.7267 84.2469V84.0991C84.5258 83.5564 84.2772 83.0329 83.984 82.5344C83.4964 82.0497 83.0064 81.6083 82.5164 81.1207C81.0852 79.2277 79.3723 77.5649 77.438 76.1901C75.8737 75.1129 72.4539 73.638 71.8234 71.8515L71.7238 71.7519C72.8687 71.5898 73.9966 71.3268 75.095 70.9659C76.754 70.5269 78.2673 70.6265 79.9746 70.2002C80.7582 70.0038 82.1747 69.5163 82.1747 69.5163V68.7507C81.3016 67.883 80.6765 66.7217 79.7577 65.9025C77.2583 63.7208 74.5944 61.7343 71.7903 59.9613C70.2922 58.9939 68.3603 58.3712 66.765 57.5472C66.1884 57.2561 65.2337 57.1132 64.8842 56.6285C64.0908 55.4643 63.4269 54.2177 62.9038 52.9098C61.5052 50.2556 60.15 47.3132 58.9454 44.5059C58.2324 42.6247 57.4101 40.7865 56.4827 39.0011C52.0074 31.3919 45.5472 25.1428 37.7939 20.9221C35.8376 19.9752 33.7576 19.3085 31.6153 18.9417C30.4056 18.8907 29.201 18.7963 27.9939 18.7503C27.2146 18.2398 26.4735 17.6735 25.7761 17.0557C23.0148 15.3075 15.92 11.5509 13.8885 16.5249C12.587 19.6665 15.823 22.7545 16.9332 24.3496C17.8693 25.4742 18.694 26.6871 19.3959 27.971C19.7353 28.7927 19.8323 29.663 20.1616 30.5231C20.87 32.7309 21.7111 34.8939 22.6805 37.0002C23.1989 38.0413 23.7961 39.0412 24.4669 39.9913C24.8574 40.5247 25.5311 40.7569 25.6766 41.6373C25.1414 42.7876 24.767 44.0065 24.5639 45.2588C23.7203 47.9228 23.4098 50.7272 23.6502 53.5112C23.8906 56.2953 24.6772 59.005 25.965 61.4848C26.7306 62.6922 28.5732 65.3488 31.036 64.3329C33.2078 63.4652 32.7255 60.7118 33.3533 58.2998C33.4962 57.7154 33.4018 57.3328 33.6901 56.9474V57.417C33.6901 57.417 34.9228 60.1246 35.5353 61.5003C37.201 64.0242 39.2703 66.2574 41.6602 68.11C42.6055 68.9356 43.3675 69.9503 43.8959 71.0884V71.9638H44.9857C44.9628 71.569 44.8534 71.1843 44.6652 70.8368C44.4769 70.4889 44.2144 70.1872 43.8959 69.9528C43.0024 69.0328 42.1837 68.043 41.4483 66.9924C39.4508 64.1471 37.6892 61.1438 36.181 58.0115C35.4153 56.4802 34.7697 54.8012 34.1572 53.2724C33.8765 52.6827 33.8765 51.7922 33.4043 51.4859C32.5325 52.5174 31.776 53.6411 31.1483 54.8367C30.3862 57.2536 29.9427 59.7596 29.8289 62.2912C29.6425 62.3423 29.7344 62.2912 29.6425 62.3884C28.1394 61.9927 27.6213 60.3672 27.0547 58.989C25.5911 54.7387 25.4435 50.1458 26.6311 45.8101C26.9577 44.7766 28.3742 41.5201 27.8076 40.5323C27.5243 39.5906 26.5826 39.0521 26.0671 38.3095C25.4089 37.3104 24.8426 36.2538 24.375 35.1525C23.2547 32.4065 22.6881 29.344 21.4682 26.5775C20.7929 25.247 20.0066 23.9758 19.1177 22.7775C18.1345 21.5804 17.2671 20.2926 16.5274 18.9315C16.2926 18.3879 15.9634 17.4998 16.3385 16.9077C16.3639 16.7432 16.4421 16.5915 16.5613 16.4755C16.6806 16.3594 16.8344 16.2854 16.9995 16.2646C17.6069 15.7235 19.35 16.4126 19.9599 16.7087C21.5993 17.354 23.1608 18.1818 24.6149 19.1765C25.2734 19.6716 26.825 20.9247 26.825 20.9247H27.2844C28.8463 21.2641 30.6021 21.0191 32.0721 21.4606C34.5472 22.2857 36.9092 23.4174 39.1031 24.8294C45.5692 28.9514 50.8261 34.7153 54.3365 41.5328C54.9233 42.6533 55.1712 43.6814 55.7069 44.8505C56.7277 47.2495 58.0038 49.6995 59.0246 52.0319C59.9254 54.3398 61.09 56.5358 62.4954 58.5754C63.2255 59.5962 66.1578 60.1373 67.4771 60.6734C68.6229 61.0699 69.7474 61.5256 70.8459 62.0389C72.5074 63.0597 74.1636 64.2361 75.7279 65.3566C76.5066 65.9434 78.9488 67.1635 79.0966 68.1406" fill="#00758F"/>
</svg>
