<svg xmlns="http://www.w3.org/2000/svg" version="1.1" xmlns:xlink="http://www.w3.org/1999/xlink" xmlns:svgjs="http://svgjs.dev/svgjs" viewBox="0 0 800 800"><defs><linearGradient gradientTransform="rotate(270)" x1="50%" y1="0%" x2="50%" y2="100%" id="sssquiggly-grad"><stop stop-color="hsl(206, 75%, 49%)" stop-opacity="1" offset="0%"></stop><stop stop-color="hsla(0, 0%, 100%, 1.00)" stop-opacity="1" offset="100%"></stop></linearGradient></defs><g stroke-width="2" stroke="hsl(230, 55%, 40%)" fill="none" stroke-linecap="round" transform="matrix(1,0,0,1,0,53.0068244934082)"><path d="M10,10C21.805555555555557,12.916666666666668,40.97222222222223,27.333333333333332,66.66666666666667,24C92.36111111111111,20.666666666666668,105.55555555555557,-9.958333333333332,133.33333333333334,-6C161.11111111111111,-2.041666666666667,172.22222222222223,42.375,200,43C227.77777777777777,43.625,238.8888888888889,0.33333333333333304,266.6666666666667,-3C294.44444444444446,-6.333333333333333,305.5555555555556,28.041666666666668,333.33333333333337,27C361.11111111111114,25.958333333333332,372.22222222222223,-9.666666666666666,400,-8C427.77777777777777,-6.333333333333334,438.8888888888889,32.5,466.6666666666667,35C494.44444444444446,37.5,505.5555555555556,5.458333333333334,533.3333333333334,4C561.1111111111111,2.5416666666666665,572.2222222222222,31.75,600,28C627.7777777777778,24.25,638.8888888888889,-15.041666666666666,666.6666666666667,-14C694.4444444444446,-12.958333333333334,707.6388888888889,28,733.3333333333334,33C759.0277777777778,38,778.1944444444445,14.791666666666668,790,10"></path><path d="M10,10C21.805555555555557,12.916666666666668,40.97222222222223,27.333333333333332,66.66666666666667,24C92.36111111111111,20.666666666666668,105.55555555555557,-9.958333333333332,133.33333333333334,-6C161.11111111111111,-2.041666666666667,172.22222222222223,42.375,200,43C227.77777777777777,43.625,238.8888888888889,0.33333333333333304,266.6666666666667,-3C294.44444444444446,-6.333333333333333,305.5555555555556,28.041666666666668,333.33333333333337,27C361.11111111111114,25.958333333333332,372.22222222222223,-9.666666666666666,400,-8C427.77777777777777,-6.333333333333334,438.8888888888889,32.5,466.6666666666667,35C494.44444444444446,37.5,505.5555555555556,5.458333333333334,533.3333333333334,4C561.1111111111111,2.5416666666666665,572.2222222222222,31.75,600,28C627.7777777777778,24.25,638.8888888888889,-15.041666666666666,666.6666666666667,-14C694.4444444444446,-12.958333333333334,707.6388888888889,28,733.3333333333334,33C759.0277777777778,38,778.1944444444445,14.791666666666668,790,10" transform="matrix(1,0,0,1,0,665)"></path><path d="M10,10C21.805555555555557,12.916666666666668,40.97222222222223,27.333333333333332,66.66666666666667,24C92.36111111111111,20.666666666666668,105.55555555555557,-9.958333333333332,133.33333333333334,-6C161.11111111111111,-2.041666666666667,172.22222222222223,42.375,200,43C227.77777777777777,43.625,238.8888888888889,0.33333333333333304,266.6666666666667,-3C294.44444444444446,-6.333333333333333,305.5555555555556,28.041666666666668,333.33333333333337,27C361.11111111111114,25.958333333333332,372.22222222222223,-9.666666666666666,400,-8C427.77777777777777,-6.333333333333334,438.8888888888889,32.5,466.6666666666667,35C494.44444444444446,37.5,505.5555555555556,5.458333333333334,533.3333333333334,4C561.1111111111111,2.5416666666666665,572.2222222222222,31.75,600,28C627.7777777777778,24.25,638.8888888888889,-15.041666666666666,666.6666666666667,-14C694.4444444444446,-12.958333333333334,707.6388888888889,28,733.3333333333334,33C759.0277777777778,38,778.1944444444445,14.791666666666668,790,10" transform="matrix(1,0,0,1,0,630)"></path><path d="M10,10C21.805555555555557,12.916666666666668,40.97222222222223,27.333333333333332,66.66666666666667,24C92.36111111111111,20.666666666666668,105.55555555555557,-9.958333333333332,133.33333333333334,-6C161.11111111111111,-2.041666666666667,172.22222222222223,42.375,200,43C227.77777777777777,43.625,238.8888888888889,0.33333333333333304,266.6666666666667,-3C294.44444444444446,-6.333333333333333,305.5555555555556,28.041666666666668,333.33333333333337,27C361.11111111111114,25.958333333333332,372.22222222222223,-9.666666666666666,400,-8C427.77777777777777,-6.333333333333334,438.8888888888889,32.5,466.6666666666667,35C494.44444444444446,37.5,505.5555555555556,5.458333333333334,533.3333333333334,4C561.1111111111111,2.5416666666666665,572.2222222222222,31.75,600,28C627.7777777777778,24.25,638.8888888888889,-15.041666666666666,666.6666666666667,-14C694.4444444444446,-12.958333333333334,707.6388888888889,28,733.3333333333334,33C759.0277777777778,38,778.1944444444445,14.791666666666668,790,10" transform="matrix(1,0,0,1,0,595)"></path><path d="M10,10C21.805555555555557,12.916666666666668,40.97222222222223,27.333333333333332,66.66666666666667,24C92.36111111111111,20.666666666666668,105.55555555555557,-9.958333333333332,133.33333333333334,-6C161.11111111111111,-2.041666666666667,172.22222222222223,42.375,200,43C227.77777777777777,43.625,238.8888888888889,0.33333333333333304,266.6666666666667,-3C294.44444444444446,-6.333333333333333,305.5555555555556,28.041666666666668,333.33333333333337,27C361.11111111111114,25.958333333333332,372.22222222222223,-9.666666666666666,400,-8C427.77777777777777,-6.333333333333334,438.8888888888889,32.5,466.6666666666667,35C494.44444444444446,37.5,505.5555555555556,5.458333333333334,533.3333333333334,4C561.1111111111111,2.5416666666666665,572.2222222222222,31.75,600,28C627.7777777777778,24.25,638.8888888888889,-15.041666666666666,666.6666666666667,-14C694.4444444444446,-12.958333333333334,707.6388888888889,28,733.3333333333334,33C759.0277777777778,38,778.1944444444445,14.791666666666668,790,10" transform="matrix(1,0,0,1,0,560)"></path><path d="M10,10C21.805555555555557,12.916666666666668,40.97222222222223,27.333333333333332,66.66666666666667,24C92.36111111111111,20.666666666666668,105.55555555555557,-9.958333333333332,133.33333333333334,-6C161.11111111111111,-2.041666666666667,172.22222222222223,42.375,200,43C227.77777777777777,43.625,238.8888888888889,0.33333333333333304,266.6666666666667,-3C294.44444444444446,-6.333333333333333,305.5555555555556,28.041666666666668,333.33333333333337,27C361.11111111111114,25.958333333333332,372.22222222222223,-9.666666666666666,400,-8C427.77777777777777,-6.333333333333334,438.8888888888889,32.5,466.6666666666667,35C494.44444444444446,37.5,505.5555555555556,5.458333333333334,533.3333333333334,4C561.1111111111111,2.5416666666666665,572.2222222222222,31.75,600,28C627.7777777777778,24.25,638.8888888888889,-15.041666666666666,666.6666666666667,-14C694.4444444444446,-12.958333333333334,707.6388888888889,28,733.3333333333334,33C759.0277777777778,38,778.1944444444445,14.791666666666668,790,10" transform="matrix(1,0,0,1,0,525)"></path><path d="M10,10C21.805555555555557,12.916666666666668,40.97222222222223,27.333333333333332,66.66666666666667,24C92.36111111111111,20.666666666666668,105.55555555555557,-9.958333333333332,133.33333333333334,-6C161.11111111111111,-2.041666666666667,172.22222222222223,42.375,200,43C227.77777777777777,43.625,238.8888888888889,0.33333333333333304,266.6666666666667,-3C294.44444444444446,-6.333333333333333,305.5555555555556,28.041666666666668,333.33333333333337,27C361.11111111111114,25.958333333333332,372.22222222222223,-9.666666666666666,400,-8C427.77777777777777,-6.333333333333334,438.8888888888889,32.5,466.6666666666667,35C494.44444444444446,37.5,505.5555555555556,5.458333333333334,533.3333333333334,4C561.1111111111111,2.5416666666666665,572.2222222222222,31.75,600,28C627.7777777777778,24.25,638.8888888888889,-15.041666666666666,666.6666666666667,-14C694.4444444444446,-12.958333333333334,707.6388888888889,28,733.3333333333334,33C759.0277777777778,38,778.1944444444445,14.791666666666668,790,10" transform="matrix(1,0,0,1,0,490)"></path><path d="M10,10C21.805555555555557,12.916666666666668,40.97222222222223,27.333333333333332,66.66666666666667,24C92.36111111111111,20.666666666666668,105.55555555555557,-9.958333333333332,133.33333333333334,-6C161.11111111111111,-2.041666666666667,172.22222222222223,42.375,200,43C227.77777777777777,43.625,238.8888888888889,0.33333333333333304,266.6666666666667,-3C294.44444444444446,-6.333333333333333,305.5555555555556,28.041666666666668,333.33333333333337,27C361.11111111111114,25.958333333333332,372.22222222222223,-9.666666666666666,400,-8C427.77777777777777,-6.333333333333334,438.8888888888889,32.5,466.6666666666667,35C494.44444444444446,37.5,505.5555555555556,5.458333333333334,533.3333333333334,4C561.1111111111111,2.5416666666666665,572.2222222222222,31.75,600,28C627.7777777777778,24.25,638.8888888888889,-15.041666666666666,666.6666666666667,-14C694.4444444444446,-12.958333333333334,707.6388888888889,28,733.3333333333334,33C759.0277777777778,38,778.1944444444445,14.791666666666668,790,10" transform="matrix(1,0,0,1,0,455)"></path><path d="M10,10C21.805555555555557,12.916666666666668,40.97222222222223,27.333333333333332,66.66666666666667,24C92.36111111111111,20.666666666666668,105.55555555555557,-9.958333333333332,133.33333333333334,-6C161.11111111111111,-2.041666666666667,172.22222222222223,42.375,200,43C227.77777777777777,43.625,238.8888888888889,0.33333333333333304,266.6666666666667,-3C294.44444444444446,-6.333333333333333,305.5555555555556,28.041666666666668,333.33333333333337,27C361.11111111111114,25.958333333333332,372.22222222222223,-9.666666666666666,400,-8C427.77777777777777,-6.333333333333334,438.8888888888889,32.5,466.6666666666667,35C494.44444444444446,37.5,505.5555555555556,5.458333333333334,533.3333333333334,4C561.1111111111111,2.5416666666666665,572.2222222222222,31.75,600,28C627.7777777777778,24.25,638.8888888888889,-15.041666666666666,666.6666666666667,-14C694.4444444444446,-12.958333333333334,707.6388888888889,28,733.3333333333334,33C759.0277777777778,38,778.1944444444445,14.791666666666668,790,10" transform="matrix(1,0,0,1,0,420)"></path><path d="M10,10C21.805555555555557,12.916666666666668,40.97222222222223,27.333333333333332,66.66666666666667,24C92.36111111111111,20.666666666666668,105.55555555555557,-9.958333333333332,133.33333333333334,-6C161.11111111111111,-2.041666666666667,172.22222222222223,42.375,200,43C227.77777777777777,43.625,238.8888888888889,0.33333333333333304,266.6666666666667,-3C294.44444444444446,-6.333333333333333,305.5555555555556,28.041666666666668,333.33333333333337,27C361.11111111111114,25.958333333333332,372.22222222222223,-9.666666666666666,400,-8C427.77777777777777,-6.333333333333334,438.8888888888889,32.5,466.6666666666667,35C494.44444444444446,37.5,505.5555555555556,5.458333333333334,533.3333333333334,4C561.1111111111111,2.5416666666666665,572.2222222222222,31.75,600,28C627.7777777777778,24.25,638.8888888888889,-15.041666666666666,666.6666666666667,-14C694.4444444444446,-12.958333333333334,707.6388888888889,28,733.3333333333334,33C759.0277777777778,38,778.1944444444445,14.791666666666668,790,10" transform="matrix(1,0,0,1,0,385)"></path><path d="M10,10C21.805555555555557,12.916666666666668,40.97222222222223,27.333333333333332,66.66666666666667,24C92.36111111111111,20.666666666666668,105.55555555555557,-9.958333333333332,133.33333333333334,-6C161.11111111111111,-2.041666666666667,172.22222222222223,42.375,200,43C227.77777777777777,43.625,238.8888888888889,0.33333333333333304,266.6666666666667,-3C294.44444444444446,-6.333333333333333,305.5555555555556,28.041666666666668,333.33333333333337,27C361.11111111111114,25.958333333333332,372.22222222222223,-9.666666666666666,400,-8C427.77777777777777,-6.333333333333334,438.8888888888889,32.5,466.6666666666667,35C494.44444444444446,37.5,505.5555555555556,5.458333333333334,533.3333333333334,4C561.1111111111111,2.5416666666666665,572.2222222222222,31.75,600,28C627.7777777777778,24.25,638.8888888888889,-15.041666666666666,666.6666666666667,-14C694.4444444444446,-12.958333333333334,707.6388888888889,28,733.3333333333334,33C759.0277777777778,38,778.1944444444445,14.791666666666668,790,10" transform="matrix(1,0,0,1,0,350)"></path><path d="M10,10C21.805555555555557,12.916666666666668,40.97222222222223,27.333333333333332,66.66666666666667,24C92.36111111111111,20.666666666666668,105.55555555555557,-9.958333333333332,133.33333333333334,-6C161.11111111111111,-2.041666666666667,172.22222222222223,42.375,200,43C227.77777777777777,43.625,238.8888888888889,0.33333333333333304,266.6666666666667,-3C294.44444444444446,-6.333333333333333,305.5555555555556,28.041666666666668,333.33333333333337,27C361.11111111111114,25.958333333333332,372.22222222222223,-9.666666666666666,400,-8C427.77777777777777,-6.333333333333334,438.8888888888889,32.5,466.6666666666667,35C494.44444444444446,37.5,505.5555555555556,5.458333333333334,533.3333333333334,4C561.1111111111111,2.5416666666666665,572.2222222222222,31.75,600,28C627.7777777777778,24.25,638.8888888888889,-15.041666666666666,666.6666666666667,-14C694.4444444444446,-12.958333333333334,707.6388888888889,28,733.3333333333334,33C759.0277777777778,38,778.1944444444445,14.791666666666668,790,10" transform="matrix(1,0,0,1,0,315)"></path><path d="M10,10C21.805555555555557,12.916666666666668,40.97222222222223,27.333333333333332,66.66666666666667,24C92.36111111111111,20.666666666666668,105.55555555555557,-9.958333333333332,133.33333333333334,-6C161.11111111111111,-2.041666666666667,172.22222222222223,42.375,200,43C227.77777777777777,43.625,238.8888888888889,0.33333333333333304,266.6666666666667,-3C294.44444444444446,-6.333333333333333,305.5555555555556,28.041666666666668,333.33333333333337,27C361.11111111111114,25.958333333333332,372.22222222222223,-9.666666666666666,400,-8C427.77777777777777,-6.333333333333334,438.8888888888889,32.5,466.6666666666667,35C494.44444444444446,37.5,505.5555555555556,5.458333333333334,533.3333333333334,4C561.1111111111111,2.5416666666666665,572.2222222222222,31.75,600,28C627.7777777777778,24.25,638.8888888888889,-15.041666666666666,666.6666666666667,-14C694.4444444444446,-12.958333333333334,707.6388888888889,28,733.3333333333334,33C759.0277777777778,38,778.1944444444445,14.791666666666668,790,10" transform="matrix(1,0,0,1,0,280)"></path><path d="M10,10C21.805555555555557,12.916666666666668,40.97222222222223,27.333333333333332,66.66666666666667,24C92.36111111111111,20.666666666666668,105.55555555555557,-9.958333333333332,133.33333333333334,-6C161.11111111111111,-2.041666666666667,172.22222222222223,42.375,200,43C227.77777777777777,43.625,238.8888888888889,0.33333333333333304,266.6666666666667,-3C294.44444444444446,-6.333333333333333,305.5555555555556,28.041666666666668,333.33333333333337,27C361.11111111111114,25.958333333333332,372.22222222222223,-9.666666666666666,400,-8C427.77777777777777,-6.333333333333334,438.8888888888889,32.5,466.6666666666667,35C494.44444444444446,37.5,505.5555555555556,5.458333333333334,533.3333333333334,4C561.1111111111111,2.5416666666666665,572.2222222222222,31.75,600,28C627.7777777777778,24.25,638.8888888888889,-15.041666666666666,666.6666666666667,-14C694.4444444444446,-12.958333333333334,707.6388888888889,28,733.3333333333334,33C759.0277777777778,38,778.1944444444445,14.791666666666668,790,10" transform="matrix(1,0,0,1,0,245)"></path><path d="M10,10C21.805555555555557,12.916666666666668,40.97222222222223,27.333333333333332,66.66666666666667,24C92.36111111111111,20.666666666666668,105.55555555555557,-9.958333333333332,133.33333333333334,-6C161.11111111111111,-2.041666666666667,172.22222222222223,42.375,200,43C227.77777777777777,43.625,238.8888888888889,0.33333333333333304,266.6666666666667,-3C294.44444444444446,-6.333333333333333,305.5555555555556,28.041666666666668,333.33333333333337,27C361.11111111111114,25.958333333333332,372.22222222222223,-9.666666666666666,400,-8C427.77777777777777,-6.333333333333334,438.8888888888889,32.5,466.6666666666667,35C494.44444444444446,37.5,505.5555555555556,5.458333333333334,533.3333333333334,4C561.1111111111111,2.5416666666666665,572.2222222222222,31.75,600,28C627.7777777777778,24.25,638.8888888888889,-15.041666666666666,666.6666666666667,-14C694.4444444444446,-12.958333333333334,707.6388888888889,28,733.3333333333334,33C759.0277777777778,38,778.1944444444445,14.791666666666668,790,10" transform="matrix(1,0,0,1,0,210)"></path><path d="M10,10C21.805555555555557,12.916666666666668,40.97222222222223,27.333333333333332,66.66666666666667,24C92.36111111111111,20.666666666666668,105.55555555555557,-9.958333333333332,133.33333333333334,-6C161.11111111111111,-2.041666666666667,172.22222222222223,42.375,200,43C227.77777777777777,43.625,238.8888888888889,0.33333333333333304,266.6666666666667,-3C294.44444444444446,-6.333333333333333,305.5555555555556,28.041666666666668,333.33333333333337,27C361.11111111111114,25.958333333333332,372.22222222222223,-9.666666666666666,400,-8C427.77777777777777,-6.333333333333334,438.8888888888889,32.5,466.6666666666667,35C494.44444444444446,37.5,505.5555555555556,5.458333333333334,533.3333333333334,4C561.1111111111111,2.5416666666666665,572.2222222222222,31.75,600,28C627.7777777777778,24.25,638.8888888888889,-15.041666666666666,666.6666666666667,-14C694.4444444444446,-12.958333333333334,707.6388888888889,28,733.3333333333334,33C759.0277777777778,38,778.1944444444445,14.791666666666668,790,10" transform="matrix(1,0,0,1,0,175)"></path><path d="M10,10C21.805555555555557,12.916666666666668,40.97222222222223,27.333333333333332,66.66666666666667,24C92.36111111111111,20.666666666666668,105.55555555555557,-9.958333333333332,133.33333333333334,-6C161.11111111111111,-2.041666666666667,172.22222222222223,42.375,200,43C227.77777777777777,43.625,238.8888888888889,0.33333333333333304,266.6666666666667,-3C294.44444444444446,-6.333333333333333,305.5555555555556,28.041666666666668,333.33333333333337,27C361.11111111111114,25.958333333333332,372.22222222222223,-9.666666666666666,400,-8C427.77777777777777,-6.333333333333334,438.8888888888889,32.5,466.6666666666667,35C494.44444444444446,37.5,505.5555555555556,5.458333333333334,533.3333333333334,4C561.1111111111111,2.5416666666666665,572.2222222222222,31.75,600,28C627.7777777777778,24.25,638.8888888888889,-15.041666666666666,666.6666666666667,-14C694.4444444444446,-12.958333333333334,707.6388888888889,28,733.3333333333334,33C759.0277777777778,38,778.1944444444445,14.791666666666668,790,10" transform="matrix(1,0,0,1,0,140)"></path><path d="M10,10C21.805555555555557,12.916666666666668,40.97222222222223,27.333333333333332,66.66666666666667,24C92.36111111111111,20.666666666666668,105.55555555555557,-9.958333333333332,133.33333333333334,-6C161.11111111111111,-2.041666666666667,172.22222222222223,42.375,200,43C227.77777777777777,43.625,238.8888888888889,0.33333333333333304,266.6666666666667,-3C294.44444444444446,-6.333333333333333,305.5555555555556,28.041666666666668,333.33333333333337,27C361.11111111111114,25.958333333333332,372.22222222222223,-9.666666666666666,400,-8C427.77777777777777,-6.333333333333334,438.8888888888889,32.5,466.6666666666667,35C494.44444444444446,37.5,505.5555555555556,5.458333333333334,533.3333333333334,4C561.1111111111111,2.5416666666666665,572.2222222222222,31.75,600,28C627.7777777777778,24.25,638.8888888888889,-15.041666666666666,666.6666666666667,-14C694.4444444444446,-12.958333333333334,707.6388888888889,28,733.3333333333334,33C759.0277777777778,38,778.1944444444445,14.791666666666668,790,10" transform="matrix(1,0,0,1,0,105)"></path><path d="M10,10C21.805555555555557,12.916666666666668,40.97222222222223,27.333333333333332,66.66666666666667,24C92.36111111111111,20.666666666666668,105.55555555555557,-9.958333333333332,133.33333333333334,-6C161.11111111111111,-2.041666666666667,172.22222222222223,42.375,200,43C227.77777777777777,43.625,238.8888888888889,0.33333333333333304,266.6666666666667,-3C294.44444444444446,-6.333333333333333,305.5555555555556,28.041666666666668,333.33333333333337,27C361.11111111111114,25.958333333333332,372.22222222222223,-9.666666666666666,400,-8C427.77777777777777,-6.333333333333334,438.8888888888889,32.5,466.6666666666667,35C494.44444444444446,37.5,505.5555555555556,5.458333333333334,533.3333333333334,4C561.1111111111111,2.5416666666666665,572.2222222222222,31.75,600,28C627.7777777777778,24.25,638.8888888888889,-15.041666666666666,666.6666666666667,-14C694.4444444444446,-12.958333333333334,707.6388888888889,28,733.3333333333334,33C759.0277777777778,38,778.1944444444445,14.791666666666668,790,10" transform="matrix(1,0,0,1,0,70)"></path><path d="M10,10C21.805555555555557,12.916666666666668,40.97222222222223,27.333333333333332,66.66666666666667,24C92.36111111111111,20.666666666666668,105.55555555555557,-9.958333333333332,133.33333333333334,-6C161.11111111111111,-2.041666666666667,172.22222222222223,42.375,200,43C227.77777777777777,43.625,238.8888888888889,0.33333333333333304,266.6666666666667,-3C294.44444444444446,-6.333333333333333,305.5555555555556,28.041666666666668,333.33333333333337,27C361.11111111111114,25.958333333333332,372.22222222222223,-9.666666666666666,400,-8C427.77777777777777,-6.333333333333334,438.8888888888889,32.5,466.6666666666667,35C494.44444444444446,37.5,505.5555555555556,5.458333333333334,533.3333333333334,4C561.1111111111111,2.5416666666666665,572.2222222222222,31.75,600,28C627.7777777777778,24.25,638.8888888888889,-15.041666666666666,666.6666666666667,-14C694.4444444444446,-12.958333333333334,707.6388888888889,28,733.3333333333334,33C759.0277777777778,38,778.1944444444445,14.791666666666668,790,10" transform="matrix(1,0,0,1,0,35)"></path></g></svg>