<svg width="32" height="32" viewBox="0 0 32 32" fill="none" xmlns="http://www.w3.org/2000/svg">
<path d="M27.5511 25.0279C27.5511 25.0279 26.0062 26.5453 25.6276 26.9901C25.0109 27.6483 24.2843 27.9591 23.3317 27.9591C23.2401 27.9591 23.1424 27.9591 23.0508 27.953C21.2372 27.8372 19.5519 27.1303 18.2879 26.527C14.8318 24.8573 11.7969 22.4868 9.27506 19.4826C7.19282 16.9781 5.80059 14.6624 4.87855 12.1761C4.31066 10.6588 4.10305 9.4766 4.19464 8.36144C4.25571 7.64846 4.53049 7.05737 5.03731 6.55158L7.11954 4.4736C7.41875 4.19329 7.73628 4.04094 8.0477 4.04094C8.43239 4.04094 8.74381 4.27251 8.93921 4.46751C8.94532 4.4736 8.95142 4.4797 8.95753 4.48579C9.33001 4.83314 9.68417 5.19267 10.0567 5.57658C10.246 5.77158 10.4414 5.96658 10.6368 6.16767L12.3038 7.83128C12.951 8.47722 12.951 9.07441 12.3038 9.72035C12.1267 9.89707 11.9557 10.0738 11.7786 10.2444C11.2657 10.7685 11.6686 10.3664 11.1374 10.8417C11.1252 10.8539 11.113 10.86 11.1069 10.8722C10.5817 11.3962 10.6794 11.9081 10.7893 12.2554C10.7954 12.2737 10.8015 12.292 10.8076 12.3103C11.2412 13.3584 11.8518 14.3456 12.78 15.5217L12.7861 15.5278C14.4714 17.5997 16.2483 19.2145 18.2084 20.4516C18.4588 20.61 18.7153 20.738 18.9595 20.8599C19.1793 20.9696 19.3869 21.0732 19.564 21.1828C19.5885 21.195 19.6129 21.2133 19.6373 21.2255C19.8449 21.3291 20.0403 21.3778 20.2418 21.3778C20.7486 21.3778 21.0662 21.061 21.17 20.9574L22.3669 19.7629C22.5745 19.5557 22.9042 19.3059 23.2889 19.3059C23.6675 19.3059 23.9789 19.5435 24.1682 19.7507C24.1743 19.7568 24.1743 19.7568 24.1804 19.7629L27.545 23.1206C28.1739 23.7422 27.5511 25.0279 27.5511 25.0279Z" stroke="black" stroke-width="2" stroke-linecap="round" stroke-linejoin="round"/>
</svg>
